<?xml version="1.0" encoding="utf-8"?>
<!-- Generator: Adobe Illustrator 22.0.0, SVG Export Plug-In . SVG Version: 6.00 Build 0)  -->
<svg version="1.1" id="main" xmlns="http://www.w3.org/2000/svg" xmlns:xlink="http://www.w3.org/1999/xlink" x="0px" y="0px"
	 viewBox="0 0 150 147.3" style="enable-background:new 0 0 150 147.3;" xml:space="preserve">
<style type="text/css">
	.st0{fill:url(#SVGID_1_);}
	.st1{fill:url(#SVGID_2_);}
	.st2{fill:#24126A;}
	.st3{opacity:0.51;}
	.st4{fill:#453C9E;}
	.st5{fill:url(#SVGID_3_);}
	.st6{fill:url(#SVGID_4_);}
	.st7{fill:#FFFFFF;}
	.st8{opacity:0.15;}
	.st9{clip-path:url(#SVGID_6_);}
	.st10{fill:url(#SVGID_7_);}
	.st11{fill:url(#SVGID_8_);}
	.st12{opacity:0.5;}
	.st13{fill:#42E8E0;}
</style>
<g id="group">
	<g>
		<g>
			
				<linearGradient id="SVGID_1_" gradientUnits="userSpaceOnUse" x1="1673.9526" y1="57.475" x2="1770.9296" y2="57.475" gradientTransform="matrix(-1 0 0 1 1823.9526 0)">
				<stop  offset="0" style="stop-color:#C0BFF6"/>
				<stop  offset="0.2938" style="stop-color:#C5C4F7"/>
				<stop  offset="0.6399" style="stop-color:#D3D2F9"/>
				<stop  offset="1" style="stop-color:#E9E9FD"/>
			</linearGradient>
			<path class="st0" d="M53,63.5L63.5,1.2l-0.8-0.4L64,0.1l0,0c0.2-0.2,0.6-0.2,1,0.1l83.9,48.5c0.7,0.4,1.2,1.4,1.1,2.1l-10.6,62.8
				c-0.1,0.3-0.2,0.5-0.4,0.6l0,0l-1.2,0.7l-0.2-1.2l0.1,0L54.1,65.6C53.4,65.2,52.9,64.2,53,63.5z"/>
			
				<linearGradient id="SVGID_2_" gradientUnits="userSpaceOnUse" x1="1673.9532" y1="82.3452" x2="1690.6051" y2="82.3452" gradientTransform="matrix(-1 0 0 1 1823.9526 0)">
				<stop  offset="0" style="stop-color:#5761D7"/>
				<stop  offset="0.1779" style="stop-color:#5C66D9"/>
				<stop  offset="0.3876" style="stop-color:#6A73DF"/>
				<stop  offset="0.6134" style="stop-color:#8289E8"/>
				<stop  offset="0.849" style="stop-color:#A3A7F5"/>
				<stop  offset="1" style="stop-color:#BCBEFF"/>
			</linearGradient>
			<path class="st1" d="M148.4,50.4l1.4-0.6c0.2,0.4,0.2,0.7,0.2,1l-10.6,62.8c-0.1,0.3-0.2,0.5-0.4,0.6l0,0l-1.2,0.7l-0.2-1.2
				l0.1,0l-4.2-2.4L148.4,50.4z"/>
			<path class="st2" d="M52.8,66.4l83.9,48.5c0.6,0.4,1.2,0.2,1.3-0.5l10.6-62.8c0.1-0.7-0.4-1.7-1.1-2.1L63.6,0.9
				c-0.6-0.4-1.2-0.2-1.3,0.5L51.7,64.3C51.6,65,52.1,66,52.8,66.4z"/>
			<g class="st3">
				<polygon class="st4" points="63.3,2.1 147.7,50.8 137,113.7 52.7,65.1 				"/>
			</g>
		</g>
		<g>
			
				<linearGradient id="SVGID_3_" gradientUnits="userSpaceOnUse" x1="1686.9453" y1="109.4804" x2="1823.9084" y2="109.4804" gradientTransform="matrix(-1 0 0 1 1823.9526 0)">
				<stop  offset="0" style="stop-color:#5761D7"/>
				<stop  offset="0.1779" style="stop-color:#5C66D9"/>
				<stop  offset="0.3876" style="stop-color:#6A73DF"/>
				<stop  offset="0.6134" style="stop-color:#8289E8"/>
				<stop  offset="0.849" style="stop-color:#A3A7F5"/>
				<stop  offset="1" style="stop-color:#BCBEFF"/>
			</linearGradient>
			<path class="st5" d="M0,96.1l4.6,2.4L50.6,72c0.8-0.4,2.1-0.4,3,0.1l79.2,45.7c0.8-0.4,4.2-2.1,4.2-2.1l-1.7,2.7c0,0,0,0,0,0
				c-0.1,0.2-0.2,0.4-0.5,0.5L86.5,147c-0.8,0.4-2.1,0.4-3-0.1L2.4,100c-0.4-0.2-0.6-0.5-0.7-0.7l0,0L0,96.1z"/>
			
				<linearGradient id="SVGID_4_" gradientUnits="userSpaceOnUse" x1="1626.0978" y1="105.7354" x2="1827.9178" y2="105.7354" gradientTransform="matrix(-1 0 0 1 1823.9526 0)">
				<stop  offset="0" style="stop-color:#C0BFF6"/>
				<stop  offset="0.2938" style="stop-color:#C5C4F7"/>
				<stop  offset="0.6399" style="stop-color:#D3D2F9"/>
				<stop  offset="1" style="stop-color:#E9E9FD"/>
			</linearGradient>
			<path class="st6" d="M0.8,96.9l83.1,48c0.9,0.5,2.3,0.6,3.1,0.1l49.6-28.6c0.8-0.5,0.7-1.2-0.2-1.8l-83.1-48
				c-0.9-0.5-2.3-0.6-3.1-0.1L0.5,95.1C-0.3,95.6-0.2,96.4,0.8,96.9z"/>
			<path class="st7" d="M0.8,96.5l83.1,48c0.9,0.5,2.3,0.6,3.1,0.1l49.6-28.6c0.3-0.2,0.4-0.4,0.5-0.6c0.1,0.4-0.1,0.7-0.5,1
				L86.9,145c-0.8,0.5-2.2,0.4-3.1-0.1l-83.1-48c-0.6-0.3-0.8-0.8-0.7-1.2C0.1,96,0.3,96.3,0.8,96.5z"/>
		</g>
	</g>
	<g class="st8">
		<defs>
			<polygon id="SVGID_5_" class="st8" points="147.7,50.8 63.3,2.1 52.7,65.1 137,113.7 			"/>
		</defs>
		<clipPath id="SVGID_6_">
			<use xlink:href="#SVGID_5_"  style="overflow:visible;"/>
		</clipPath>
		<g class="st9">
			<g>
				
					<linearGradient id="SVGID_7_" gradientUnits="userSpaceOnUse" x1="1634.2786" y1="79.3376" x2="1771.2418" y2="79.3376" gradientTransform="matrix(-1 0 0 1 1823.9526 0)">
					<stop  offset="0" style="stop-color:#5761D7"/>
					<stop  offset="0.1779" style="stop-color:#5C66D9"/>
					<stop  offset="0.3876" style="stop-color:#6A73DF"/>
					<stop  offset="0.6134" style="stop-color:#8289E8"/>
					<stop  offset="0.849" style="stop-color:#A3A7F5"/>
					<stop  offset="1" style="stop-color:#BCBEFF"/>
				</linearGradient>
				<path class="st10" d="M52.7,66l4.6,2.4l45.9-26.5c0.8-0.4,2.1-0.4,3,0.1l79.2,45.7c0.8-0.4,4.2-2.1,4.2-2.1l-1.7,2.7
					c0,0,0,0,0,0c-0.1,0.2-0.2,0.4-0.5,0.5l-48.4,27.9c-0.8,0.4-2.1,0.4-3-0.1L55.1,69.9c-0.4-0.2-0.6-0.5-0.7-0.7l0,0L52.7,66z"/>
				
					<linearGradient id="SVGID_8_" gradientUnits="userSpaceOnUse" x1="1680.2987" y1="75.5926" x2="1817.335" y2="75.5926" gradientTransform="matrix(-1 0 0 1 1823.9526 0)">
					<stop  offset="0" style="stop-color:#C0BFF6"/>
					<stop  offset="0.2938" style="stop-color:#C5C4F7"/>
					<stop  offset="0.6399" style="stop-color:#D3D2F9"/>
					<stop  offset="1" style="stop-color:#E9E9FD"/>
				</linearGradient>
				<path class="st11" d="M53.4,66.7l83.1,48c0.9,0.5,2.3,0.6,3.1,0.1l49.6-28.6c0.8-0.5,0.7-1.2-0.2-1.8l-83.1-48
					c-0.9-0.5-2.3-0.6-3.1-0.1L53.2,65C52.4,65.4,52.5,66.2,53.4,66.7z"/>
				<path class="st7" d="M189,84.4l-83.1-48c-0.6-0.3-1.4-0.5-2.1-0.4c0.5,0,1,0.2,1.4,0.4l83.1,48c0.9,0.5,1,1.3,0.2,1.8L139,114.8
					c-0.3,0.2-0.6,0.3-1,0.3c0.6,0,1.2,0,1.6-0.3l49.6-28.6C190,85.8,189.9,85,189,84.4z"/>
			</g>
			<g class="st12">
				<path class="st2" d="M96.9,58.5l-2.7-1.5c-0.2-0.1-0.6-0.1-0.8,0l-3,1.7c-0.2,0.1-0.2,0.3,0,0.5l2.7,1.5c0.2,0.1,0.6,0.1,0.8,0
					l3-1.7C97.1,58.8,97.2,58.6,96.9,58.5z"/>
				<path class="st2" d="M101.1,60.9l-2.7-1.5c-0.2-0.1-0.6-0.1-0.8,0l-3,1.7c-0.2,0.1-0.2,0.3,0,0.5l2.7,1.5c0.2,0.1,0.6,0.1,0.8,0
					l3-1.7C101.3,61.2,101.3,61,101.1,60.9z"/>
				<path class="st2" d="M105.2,63.2l-2.7-1.5c-0.2-0.1-0.6-0.1-0.8,0l-3,1.7c-0.2,0.1-0.2,0.3,0,0.5l2.7,1.5c0.2,0.1,0.6,0.1,0.8,0
					l3-1.7C105.4,63.6,105.4,63.4,105.2,63.2z"/>
				<path class="st2" d="M102,66.4l-2.7-1.5c-0.2-0.1-0.6-0.1-0.8,0l-2.5,1.5c-0.2,0.1-0.2,0.3,0,0.5l2.7,1.5c0.2,0.1,0.6,0.1,0.8,0
					l2.5-1.5C102.2,66.7,102.3,66.5,102,66.4z"/>
				<path class="st2" d="M106.2,68.8l-2.7-1.5c-0.2-0.1-0.6-0.1-0.8,0l-2.5,1.5c-0.2,0.1-0.2,0.3,0,0.5l2.7,1.5
					c0.2,0.1,0.6,0.1,0.8,0l2.5-1.5C106.4,69.1,106.4,68.9,106.2,68.8z"/>
				<path class="st2" d="M110.3,71.1l-2.7-1.5c-0.2-0.1-0.6-0.1-0.8,0l-2.5,1.5c-0.2,0.1-0.2,0.3,0,0.5l2.7,1.5
					c0.2,0.1,0.6,0.1,0.8,0l2.5-1.5C110.5,71.5,110.5,71.3,110.3,71.1z"/>
				<path class="st2" d="M114.4,73.5l-2.7-1.5c-0.2-0.1-0.6-0.1-0.8,0l-2.5,1.5c-0.2,0.1-0.2,0.3,0,0.5l2.7,1.5
					c0.2,0.1,0.6,0.1,0.8,0l2.5-1.5C114.6,73.9,114.6,73.6,114.4,73.5z"/>
				<path class="st2" d="M118.5,75.9l-2.7-1.5c-0.2-0.1-0.6-0.1-0.8,0l-2.5,1.5c-0.2,0.1-0.2,0.3,0,0.5l2.7,1.5
					c0.2,0.1,0.6,0.1,0.8,0l2.5-1.5C118.7,76.2,118.7,76,118.5,75.9z"/>
				<path class="st2" d="M122.6,78.3l-2.7-1.5c-0.2-0.1-0.6-0.1-0.8,0l-2.5,1.5c-0.2,0.1-0.2,0.3,0,0.5l2.7,1.5
					c0.2,0.1,0.6,0.1,0.8,0l2.5-1.5C122.8,78.6,122.8,78.4,122.6,78.3z"/>
				<path class="st2" d="M126.7,80.6l-2.7-1.5c-0.2-0.1-0.6-0.1-0.8,0l-2.5,1.5c-0.2,0.1-0.2,0.3,0,0.5l2.7,1.5
					c0.2,0.1,0.6,0.1,0.8,0l2.5-1.5C126.9,81,126.9,80.8,126.7,80.6z"/>
				<path class="st2" d="M130.8,83l-2.7-1.5c-0.2-0.1-0.6-0.1-0.8,0l-2.5,1.5c-0.2,0.1-0.2,0.3,0,0.5l2.7,1.5c0.2,0.1,0.6,0.1,0.8,0
					l2.5-1.5C131,83.4,131,83.1,130.8,83z"/>
				<path class="st2" d="M134.9,85.4l-2.7-1.5c-0.2-0.1-0.6-0.1-0.8,0l-2.5,1.5c-0.2,0.1-0.2,0.3,0,0.5l2.7,1.5
					c0.2,0.1,0.6,0.1,0.8,0l2.5-1.5C135.1,85.7,135.2,85.5,134.9,85.4z"/>
				<path class="st2" d="M139.1,87.8l-2.7-1.5c-0.2-0.1-0.6-0.1-0.8,0l-2.5,1.5c-0.2,0.1-0.2,0.3,0,0.5l2.7,1.5
					c0.2,0.1,0.6,0.1,0.8,0l2.5-1.5C139.3,88.1,139.3,87.9,139.1,87.8z"/>
				<path class="st2" d="M100.3,69.8l-2.7-1.5c-0.2-0.1-0.6-0.1-0.8,0l-2.5,1.5c-0.2,0.1-0.2,0.3,0,0.5l2.7,1.5
					c0.2,0.1,0.6,0.1,0.8,0l2.5-1.5C100.5,70.1,100.5,69.9,100.3,69.8z"/>
				<path class="st2" d="M96.2,67.4l-2.7-1.5c-0.2-0.1-0.6-0.1-0.8,0l-2.5,1.5c-0.2,0.1-0.2,0.3,0,0.5l2.7,1.5
					c0.2,0.1,0.6,0.1,0.8,0l2.5-1.5C96.3,67.7,96.4,67.5,96.2,67.4z"/>
				<path class="st2" d="M92,65l-5.7-3.3c-0.2-0.1-0.6-0.1-0.8,0l-2.5,1.5c-0.2,0.1-0.2,0.3,0,0.5l5.7,3.3c0.2,0.1,0.6,0.1,0.8,0
					l2.5-1.5C92.2,65.3,92.2,65.1,92,65z"/>
				<path class="st2" d="M87.1,66.5l-4.7-2.7c-0.2-0.1-0.6-0.1-0.8,0l-2.5,1.5c-0.2,0.1-0.2,0.3,0,0.5l4.7,2.7
					c0.2,0.1,0.6,0.1,0.8,0l2.5-1.5C87.3,66.9,87.3,66.7,87.1,66.5z"/>
				<path class="st2" d="M104.4,72.2l-2.7-1.5c-0.2-0.1-0.6-0.1-0.8,0l-2.5,1.5c-0.2,0.1-0.2,0.3,0,0.5l2.7,1.5
					c0.2,0.1,0.6,0.1,0.8,0l2.5-1.5C104.6,72.5,104.7,72.3,104.4,72.2z"/>
				<path class="st2" d="M108.6,74.5l-2.7-1.5c-0.2-0.1-0.6-0.1-0.8,0l-2.5,1.5c-0.2,0.1-0.2,0.3,0,0.5l2.7,1.5
					c0.2,0.1,0.6,0.1,0.8,0l2.5-1.5C108.8,74.9,108.8,74.7,108.6,74.5z"/>
				<path class="st2" d="M112.7,76.9l-2.7-1.5c-0.2-0.1-0.6-0.1-0.8,0l-2.5,1.5c-0.2,0.1-0.2,0.3,0,0.5l2.7,1.5
					c0.2,0.1,0.6,0.1,0.8,0l2.5-1.5C112.9,77.2,112.9,77,112.7,76.9z"/>
				<path class="st2" d="M116.8,79.3l-2.7-1.5c-0.2-0.1-0.6-0.1-0.8,0l-2.5,1.5c-0.2,0.1-0.2,0.3,0,0.5l2.7,1.5
					c0.2,0.1,0.6,0.1,0.8,0l2.5-1.5C117,79.6,117,79.4,116.8,79.3z"/>
				<path class="st2" d="M120.9,81.7l-2.7-1.5c-0.2-0.1-0.6-0.1-0.8,0l-2.5,1.5c-0.2,0.1-0.2,0.3,0,0.5l2.7,1.5
					c0.2,0.1,0.6,0.1,0.8,0l2.5-1.5C121.1,82,121.1,81.8,120.9,81.7z"/>
				<path class="st2" d="M125,84l-2.7-1.5c-0.2-0.1-0.6-0.1-0.8,0L119,84c-0.2,0.1-0.2,0.3,0,0.5l2.7,1.5c0.2,0.1,0.6,0.1,0.8,0
					l2.5-1.5C125.2,84.4,125.2,84.2,125,84z"/>
				<path class="st2" d="M129.1,86.4l-2.7-1.5c-0.2-0.1-0.6-0.1-0.8,0l-2.5,1.5c-0.2,0.1-0.2,0.3,0,0.5l2.7,1.5
					c0.2,0.1,0.6,0.1,0.8,0l2.5-1.5C129.3,86.7,129.3,86.5,129.1,86.4z"/>
				<path class="st2" d="M133.2,88.8l-2.7-1.5c-0.2-0.1-0.6-0.1-0.8,0l-2.5,1.5c-0.2,0.1-0.2,0.3,0,0.5l2.7,1.5
					c0.2,0.1,0.6,0.1,0.8,0l2.5-1.5C133.4,89.1,133.4,88.9,133.2,88.8z"/>
				<path class="st2" d="M137.3,91.2l-2.7-1.5c-0.2-0.1-0.6-0.1-0.8,0l-2.5,1.5c-0.2,0.1-0.2,0.3,0,0.5l2.7,1.5
					c0.2,0.1,0.6,0.1,0.8,0l2.5-1.5C137.5,91.5,137.6,91.3,137.3,91.2z"/>
				<path class="st2" d="M144.7,95.4l-5.8-3.4c-0.2-0.1-0.6-0.1-0.8,0l-2.5,1.5c-0.2,0.1-0.2,0.3,0,0.5l5.8,3.4
					c0.2,0.1,0.6,0.1,0.8,0l2.5-1.5C144.9,95.7,144.9,95.5,144.7,95.4z"/>
				<path class="st2" d="M137.1,99.8l-4.9-2.8c-0.2-0.1-0.6-0.1-0.8,0l-2.5,1.5c-0.2,0.1-0.2,0.3,0,0.5l4.9,2.8
					c0.2,0.1,0.6,0.1,0.8,0l2.5-1.5C137.3,100.1,137.3,99.9,137.1,99.8z"/>
				<path class="st2" d="M103.9,76.2l-2.7-1.5c-0.2-0.1-0.6-0.1-0.8,0l-2.5,1.5c-0.2,0.1-0.2,0.3,0,0.5l2.7,1.5
					c0.2,0.1,0.6,0.1,0.8,0l2.5-1.5C104.1,76.5,104.1,76.3,103.9,76.2z"/>
				<path class="st2" d="M99.7,73.8L97,72.2c-0.2-0.1-0.6-0.1-0.8,0l-2.5,1.5c-0.2,0.1-0.2,0.3,0,0.5l2.7,1.5c0.2,0.1,0.6,0.1,0.8,0
					l2.5-1.5C99.9,74.1,99.9,73.9,99.7,73.8z"/>
				<path class="st2" d="M95.4,71.3l-2.7-1.5c-0.2-0.1-0.6-0.1-0.8,0l-2.5,1.5c-0.2,0.1-0.2,0.3,0,0.5l2.7,1.5
					c0.2,0.1,0.6,0.1,0.8,0l2.5-1.5C95.6,71.7,95.7,71.5,95.4,71.3z"/>
				<path class="st2" d="M91.2,68.9l-2.7-1.5c-0.2-0.1-0.6-0.1-0.8,0l-2.5,1.5c-0.2,0.1-0.2,0.3,0,0.5l2.7,1.5
					c0.2,0.1,0.6,0.1,0.8,0l2.5-1.5C91.4,69.2,91.4,69,91.2,68.9z"/>
				<path class="st2" d="M108,78.6l-2.7-1.5c-0.2-0.1-0.6-0.1-0.8,0l-2.5,1.5c-0.2,0.1-0.2,0.3,0,0.5l2.7,1.5c0.2,0.1,0.6,0.1,0.8,0
					l2.5-1.5C108.2,78.9,108.2,78.7,108,78.6z"/>
				<path class="st2" d="M112.1,81l-2.7-1.5c-0.2-0.1-0.6-0.1-0.8,0l-2.5,1.5c-0.2,0.1-0.2,0.3,0,0.5l2.7,1.5c0.2,0.1,0.6,0.1,0.8,0
					l2.5-1.5C112.3,81.3,112.3,81.1,112.1,81z"/>
				<path class="st2" d="M116.2,83.3l-2.7-1.5c-0.2-0.1-0.6-0.1-0.8,0l-2.5,1.5c-0.2,0.1-0.2,0.3,0,0.5l2.7,1.5
					c0.2,0.1,0.6,0.1,0.8,0l2.5-1.5C116.4,83.7,116.4,83.5,116.2,83.3z"/>
				<path class="st2" d="M120.3,85.7l-2.7-1.5c-0.2-0.1-0.6-0.1-0.8,0l-2.5,1.5c-0.2,0.1-0.2,0.3,0,0.5l2.7,1.5
					c0.2,0.1,0.6,0.1,0.8,0l2.5-1.5C120.5,86,120.5,85.8,120.3,85.7z"/>
				<path class="st2" d="M124.4,88.1l-2.7-1.5c-0.2-0.1-0.6-0.1-0.8,0l-2.5,1.5c-0.2,0.1-0.2,0.3,0,0.5l2.7,1.5
					c0.2,0.1,0.6,0.1,0.8,0l2.5-1.5C124.6,88.4,124.6,88.2,124.4,88.1z"/>
				<path class="st2" d="M128.5,90.5l-2.7-1.5c-0.2-0.1-0.6-0.1-0.8,0l-2.5,1.5c-0.2,0.1-0.2,0.3,0,0.5l2.7,1.5
					c0.2,0.1,0.6,0.1,0.8,0l2.5-1.5C128.7,90.8,128.8,90.6,128.5,90.5z"/>
				<path class="st2" d="M132.7,92.8l-2.7-1.5c-0.2-0.1-0.6-0.1-0.8,0l-2.5,1.5c-0.2,0.1-0.2,0.3,0,0.5l2.7,1.5
					c0.2,0.1,0.6,0.1,0.8,0l2.5-1.5C132.9,93.2,132.9,93,132.7,92.8z"/>
				<path class="st2" d="M136.8,95.2l-2.7-1.5c-0.2-0.1-0.6-0.1-0.8,0l-2.5,1.5c-0.2,0.1-0.2,0.3,0,0.5l2.7,1.5
					c0.2,0.1,0.6,0.1,0.8,0l2.5-1.5C137,95.5,137,95.3,136.8,95.2z"/>
				<path class="st2" d="M140.9,97.6l-2.7-1.5c-0.2-0.1-0.6-0.1-0.8,0l-2.5,1.5c-0.2,0.1-0.2,0.3,0,0.5l2.7,1.5
					c0.2,0.1,0.6,0.1,0.8,0l2.5-1.5C141.1,97.9,141.1,97.7,140.9,97.6z"/>
				<path class="st2" d="M93.9,74.8l-2.7-1.5c-0.2-0.1-0.6-0.1-0.8,0L88,74.8c-0.2,0.1-0.2,0.3,0,0.5l2.7,1.5c0.2,0.1,0.6,0.1,0.8,0
					l2.5-1.5C94.1,75.2,94.1,75,93.9,74.8z"/>
				<path class="st2" d="M89.8,72.5l-2.7-1.5c-0.2-0.1-0.6-0.1-0.8,0l-2.5,1.5c-0.2,0.1-0.2,0.3,0,0.5l2.7,1.5
					c0.2,0.1,0.6,0.1,0.8,0l2.5-1.5C90,72.8,90,72.6,89.8,72.5z"/>
				<path class="st2" d="M85.7,70.1l-2.7-1.5c-0.2-0.1-0.6-0.1-0.8,0l-2.5,1.5c-0.2,0.1-0.2,0.3,0,0.5l2.7,1.5
					c0.2,0.1,0.6,0.1,0.8,0l2.5-1.5C85.9,70.5,86,70.2,85.7,70.1z"/>
				<path class="st2" d="M81.6,67.8L79,66.2c-0.2-0.1-0.6-0.1-0.8,0l-2.5,1.5c-0.2,0.1-0.2,0.3,0,0.5l2.7,1.5c0.2,0.1,0.6,0.1,0.8,0
					l2.5-1.5C81.8,68.1,81.9,67.9,81.6,67.8z"/>
				<path class="st2" d="M77.7,70.1L75,68.5c-0.2-0.1-0.6-0.1-0.8,0L73.4,69c-0.2,0.1-0.2,0.3,0,0.5L76,71c0.2,0.1,0.6,0.1,0.8,0
					l0.8-0.5C77.9,70.4,77.9,70.2,77.7,70.1z"/>
				<path class="st2" d="M83,73.2l-2.7-1.5c-0.2-0.1-0.6-0.1-0.8,0l-0.8,0.5c-0.2,0.1-0.2,0.3,0,0.5l2.7,1.5c0.2,0.1,0.6,0.1,0.8,0
					l0.8-0.5C83.2,73.5,83.2,73.3,83,73.2z"/>
				<path class="st2" d="M87.1,75.5L84.4,74c-0.2-0.1-0.6-0.1-0.8,0l-0.8,0.5c-0.2,0.1-0.2,0.3,0,0.5l2.7,1.5c0.2,0.1,0.6,0.1,0.8,0
					l0.8-0.5C87.3,75.8,87.3,75.6,87.1,75.5z"/>
				<path class="st2" d="M91.2,77.9l-2.7-1.5c-0.2-0.1-0.6-0.1-0.8,0l-0.8,0.5c-0.2,0.1-0.2,0.3,0,0.5l2.7,1.5
					c0.2,0.1,0.6,0.1,0.8,0l0.8-0.5C91.4,78.2,91.4,78,91.2,77.9z"/>
				<path class="st2" d="M95.3,80.2l-2.7-1.5c-0.2-0.1-0.6-0.1-0.8,0L91,79.2c-0.2,0.1-0.2,0.3,0,0.5l2.7,1.5c0.2,0.1,0.6,0.1,0.8,0
					l0.8-0.5C95.5,80.6,95.5,80.3,95.3,80.2z"/>
				<path class="st2" d="M118,93.4l-2.7-1.5c-0.2-0.1-0.6-0.1-0.8,0l-0.8,0.5c-0.2,0.1-0.2,0.3,0,0.5l2.7,1.5c0.2,0.1,0.6,0.1,0.8,0
					l0.8-0.5C118.2,93.7,118.2,93.5,118,93.4z"/>
				<path class="st2" d="M122.1,95.7l-2.7-1.5c-0.2-0.1-0.6-0.1-0.8,0l-0.8,0.5c-0.2,0.1-0.2,0.3,0,0.5l2.7,1.5
					c0.2,0.1,0.6,0.1,0.8,0l0.8-0.5C122.3,96,122.3,95.8,122.1,95.7z"/>
				<path class="st2" d="M126.2,98.1l-2.7-1.5c-0.2-0.1-0.6-0.1-0.8,0l-0.8,0.5c-0.2,0.1-0.2,0.3,0,0.5l2.7,1.5
					c0.2,0.1,0.6,0.1,0.8,0l0.8-0.5C126.4,98.4,126.4,98.2,126.2,98.1z"/>
				<path class="st2" d="M130.2,100.4l-2.7-1.5c-0.2-0.1-0.6-0.1-0.8,0l-0.8,0.5c-0.2,0.1-0.2,0.3,0,0.5l2.7,1.5
					c0.2,0.1,0.6,0.1,0.8,0l0.8-0.5C130.4,100.7,130.5,100.5,130.2,100.4z"/>
				<path class="st2" d="M98,77.2l-2.7-1.5c-0.2-0.1-0.6-0.1-0.8,0l-2.5,1.5c-0.2,0.1-0.2,0.3,0,0.5l2.7,1.5c0.2,0.1,0.6,0.1,0.8,0
					l2.5-1.5C98.2,77.6,98.3,77.3,98,77.2z"/>
				<path class="st2" d="M102.2,79.6l-2.7-1.5c-0.2-0.1-0.6-0.1-0.8,0l-2.5,1.5c-0.2,0.1-0.2,0.3,0,0.5l2.7,1.5
					c0.2,0.1,0.6,0.1,0.8,0l2.5-1.5C102.4,79.9,102.4,79.7,102.2,79.6z"/>
				<path class="st2" d="M106.3,82l-2.7-1.5c-0.2-0.1-0.6-0.1-0.8,0l-2.5,1.5c-0.2,0.1-0.2,0.3,0,0.5l2.7,1.5c0.2,0.1,0.6,0.1,0.8,0
					l2.5-1.5C106.5,82.3,106.5,82.1,106.3,82z"/>
				<path class="st2" d="M110.4,84.3l-2.7-1.5c-0.2-0.1-0.6-0.1-0.8,0l-2.5,1.5c-0.2,0.1-0.2,0.3,0,0.5l2.7,1.5
					c0.2,0.1,0.6,0.1,0.8,0l2.5-1.5C110.6,84.7,110.6,84.5,110.4,84.3z"/>
				<path class="st2" d="M114.5,86.7l-2.7-1.5c-0.2-0.1-0.6-0.1-0.8,0l-2.5,1.5c-0.2,0.1-0.2,0.3,0,0.5l2.7,1.5
					c0.2,0.1,0.6,0.1,0.8,0l2.5-1.5C114.7,87.1,114.7,86.8,114.5,86.7z"/>
				<path class="st2" d="M118.6,89.1l-2.7-1.5c-0.2-0.1-0.6-0.1-0.8,0l-2.5,1.5c-0.2,0.1-0.2,0.3,0,0.5l2.7,1.5
					c0.2,0.1,0.6,0.1,0.8,0l2.5-1.5C118.8,89.4,118.8,89.2,118.6,89.1z"/>
				<path class="st2" d="M122.7,91.5l-2.7-1.5c-0.2-0.1-0.6-0.1-0.8,0l-2.5,1.5c-0.2,0.1-0.2,0.3,0,0.5l2.7,1.5
					c0.2,0.1,0.6,0.1,0.8,0l2.5-1.5C122.9,91.8,122.9,91.6,122.7,91.5z"/>
				<path class="st2" d="M126.8,93.8l-2.7-1.5c-0.2-0.1-0.6-0.1-0.8,0l-2.5,1.5c-0.2,0.1-0.2,0.3,0,0.5l2.7,1.5
					c0.2,0.1,0.6,0.1,0.8,0l2.5-1.5C127,94.2,127,94,126.8,93.8z"/>
				<path class="st2" d="M130.9,96.2l-2.7-1.5c-0.2-0.1-0.6-0.1-0.8,0l-2.5,1.5c-0.2,0.1-0.2,0.3,0,0.5l2.7,1.5
					c0.2,0.1,0.6,0.1,0.8,0l2.5-1.5C131.1,96.6,131.2,96.3,130.9,96.2z"/>
				<path class="st2" d="M97.8,64L90,59.4c-0.2-0.1-0.6-0.1-0.8,0l-2.5,1.5c-0.2,0.1-0.2,0.3,0,0.5l7.8,4.5c0.2,0.1,0.6,0.1,0.8,0
					l2.5-1.5C98,64.3,98.1,64.1,97.8,64z"/>
				<path class="st2" d="M148.4,93.1l-7.8-4.5c-0.2-0.1-0.6-0.1-0.8,0l-2.5,1.5c-0.2,0.1-0.2,0.3,0,0.5l7.8,4.5
					c0.2,0.1,0.6,0.1,0.8,0l2.5-1.5C148.6,93.5,148.6,93.3,148.4,93.1z"/>
				<path class="st2" d="M140.8,83.8l-2.7-1.5c-0.2-0.1-0.6-0.1-0.8,0l-3,1.7c-0.2,0.1-0.2,0.3,0,0.5l2.7,1.5c0.2,0.1,0.6,0.1,0.8,0
					l3-1.7C140.9,84.1,141,83.9,140.8,83.8z"/>
				<path class="st2" d="M110.9,66.5l-4.3-2.5c-0.2-0.1-0.6-0.1-0.8,0l-3,1.7c-0.2,0.1-0.2,0.3,0,0.5l4.3,2.5c0.2,0.1,0.6,0.1,0.8,0
					l3-1.7C111.1,66.9,111.1,66.7,110.9,66.5z"/>
				<path class="st2" d="M136.8,81.5l-4.3-2.5c-0.2-0.1-0.6-0.1-0.8,0l-3,1.7c-0.2,0.1-0.2,0.3,0,0.5l4.3,2.5c0.2,0.1,0.6,0.1,0.8,0
					l3-1.7C137,81.8,137,81.6,136.8,81.5z"/>
				<path class="st2" d="M116.8,70l-4.3-2.5c-0.2-0.1-0.6-0.1-0.8,0l-3,1.7c-0.2,0.1-0.2,0.3,0,0.5l4.3,2.5c0.2,0.1,0.6,0.1,0.8,0
					l3-1.7C117,70.3,117,70.1,116.8,70z"/>
				<path class="st2" d="M108.8,69.7l18.5,10.7c0.2,0.1,0.6,0.1,0.8,0l3-1.8c0.2-0.1,0.2-0.3,0-0.5l-18.5-10.7L108.8,69.7z"/>
				<path class="st2" d="M148.3,90.4l3,1.7c0.2,0.1,0.5,0.1,0.7,0l1.2-0.7c0.2-0.1,0.2-0.3,0-0.4l-3-1.7c-0.2-0.1-0.5-0.1-0.7,0
					l-1.2,0.7C148.2,90.1,148.2,90.3,148.3,90.4z"/>
				<path class="st2" d="M144.2,88l3,1.7c0.2,0.1,0.5,0.1,0.7,0L149,89c0.2-0.1,0.2-0.3,0-0.4l-3-1.7c-0.2-0.1-0.5-0.1-0.7,0
					l-1.2,0.7C144,87.7,144,87.9,144.2,88z"/>
				<path class="st2" d="M140.1,85.6l3,1.7c0.2,0.1,0.5,0.1,0.7,0l1.2-0.7c0.2-0.1,0.2-0.3,0-0.4l-3-1.7c-0.2-0.1-0.5-0.1-0.7,0
					l-1.2,0.7C139.9,85.3,139.9,85.5,140.1,85.6z"/>
				<path class="st2" d="M142,89.2l3,1.7c0.2,0.1,0.5,0.1,0.7,0l1.2-0.7c0.2-0.1,0.2-0.3,0-0.4l-3-1.7c-0.2-0.1-0.5-0.1-0.7,0
					l-1.2,0.7C141.9,88.9,141.9,89.1,142,89.2z"/>
			</g>
		</g>
	</g>
	<path class="st2" d="M39,91.6L36.3,90c-0.2-0.1-0.2-0.3,0.1-0.5l3.1-1.8c0.2-0.1,0.6-0.2,0.8,0l2.6,1.5c0.2,0.1,0.2,0.3-0.1,0.5
		l-3.1,1.8C39.6,91.7,39.2,91.7,39,91.6z"/>
	<path class="st2" d="M43,93.9l-2.6-1.5c-0.2-0.1-0.2-0.3,0.1-0.5l3.1-1.8c0.2-0.1,0.6-0.2,0.8,0l2.6,1.5c0.2,0.1,0.2,0.3-0.1,0.5
		l-3.1,1.8C43.6,94,43.3,94,43,93.9z"/>
	<path class="st2" d="M47.1,96.3l-2.6-1.5c-0.2-0.1-0.2-0.3,0.1-0.5l3.1-1.8c0.2-0.1,0.6-0.2,0.8,0l2.6,1.5c0.2,0.1,0.2,0.3-0.1,0.5
		l-3.1,1.8C47.7,96.4,47.3,96.4,47.1,96.3z"/>
	<path class="st2" d="M52.8,94.3l-2.6-1.5c-0.2-0.1-0.2-0.3,0.1-0.5l2.6-1.5c0.2-0.1,0.6-0.2,0.8,0l2.6,1.5c0.2,0.1,0.2,0.3-0.1,0.5
		l-2.6,1.5C53.3,94.4,53,94.5,52.8,94.3z"/>
	<path class="st2" d="M56.8,96.7l-2.6-1.5C54,95,54,94.8,54.3,94.7l2.6-1.5c0.2-0.1,0.6-0.2,0.8,0l2.6,1.5c0.2,0.1,0.2,0.3-0.1,0.5
		l-2.6,1.5C57.4,96.8,57,96.8,56.8,96.7z"/>
	<path class="st2" d="M60.9,99l-2.6-1.5c-0.2-0.1-0.2-0.3,0.1-0.5l2.6-1.5c0.2-0.1,0.6-0.2,0.8,0l2.6,1.5c0.2,0.1,0.2,0.3-0.1,0.5
		L61.7,99C61.5,99.1,61.1,99.2,60.9,99z"/>
	<path class="st2" d="M65,101.4l-2.6-1.5c-0.2-0.1-0.2-0.3,0.1-0.5l2.6-1.5c0.2-0.1,0.6-0.2,0.8,0l2.6,1.5c0.2,0.1,0.2,0.3-0.1,0.5
		l-2.6,1.5C65.6,101.5,65.2,101.5,65,101.4z"/>
	<path class="st2" d="M69.1,103.7l-2.6-1.5c-0.2-0.1-0.2-0.3,0.1-0.5l2.6-1.5c0.2-0.1,0.6-0.2,0.8,0l2.6,1.5
		c0.2,0.1,0.2,0.3-0.1,0.5l-2.6,1.5C69.6,103.8,69.3,103.9,69.1,103.7z"/>
	<path class="st2" d="M73.1,106.1l-2.6-1.5c-0.2-0.1-0.2-0.3,0.1-0.5l2.6-1.5c0.2-0.1,0.6-0.2,0.8,0l2.6,1.5
		c0.2,0.1,0.2,0.3-0.1,0.5l-2.6,1.5C73.7,106.2,73.3,106.2,73.1,106.1z"/>
	<path class="st2" d="M77.2,108.4l-2.6-1.5c-0.2-0.1-0.2-0.3,0.1-0.5l2.6-1.5c0.2-0.1,0.6-0.2,0.8,0l2.6,1.5
		c0.2,0.1,0.2,0.3-0.1,0.5l-2.6,1.5C77.8,108.6,77.4,108.6,77.2,108.4z"/>
	<path class="st2" d="M81.3,110.8l-2.6-1.5c-0.2-0.1-0.2-0.3,0.1-0.5l2.6-1.5c0.2-0.1,0.6-0.2,0.8,0l2.6,1.5
		c0.2,0.1,0.2,0.3-0.1,0.5l-2.6,1.5C81.9,110.9,81.5,110.9,81.3,110.8z"/>
	<path class="st2" d="M85.3,113.1l-2.6-1.5c-0.2-0.1-0.2-0.3,0.1-0.5l2.6-1.5c0.2-0.1,0.6-0.2,0.8,0l2.6,1.5
		c0.2,0.1,0.2,0.3-0.1,0.5l-2.6,1.5C85.9,113.3,85.6,113.3,85.3,113.1z"/>
	<path class="st2" d="M89.4,115.5l-2.6-1.5c-0.2-0.1-0.2-0.3,0.1-0.5l2.6-1.5c0.2-0.1,0.6-0.2,0.8,0l2.6,1.5
		c0.2,0.1,0.2,0.3-0.1,0.5l-2.6,1.5C90,115.6,89.6,115.6,89.4,115.5z"/>
	<path class="st2" d="M58.8,93.2l-2.6-1.5c-0.2-0.1-0.2-0.3,0.1-0.5l2.6-1.5c0.2-0.1,0.6-0.2,0.8,0l2.6,1.5c0.2,0.1,0.2,0.3-0.1,0.5
		l-2.6,1.5C59.3,93.3,59,93.3,58.8,93.2z"/>
	<path class="st2" d="M54.6,90.8L52,89.3c-0.2-0.1-0.2-0.3,0.1-0.5l2.6-1.5c0.2-0.1,0.6-0.2,0.8,0l2.6,1.5c0.2,0.1,0.2,0.3-0.1,0.5
		l-2.6,1.5C55.2,90.9,54.8,91,54.6,90.8z"/>
	<path class="st2" d="M50.5,88.4l-5.7-3.3c-0.2-0.1-0.2-0.3,0.1-0.5l2.6-1.5c0.2-0.1,0.6-0.2,0.8,0l5.7,3.3c0.2,0.1,0.2,0.3-0.1,0.5
		l-2.6,1.5C51.1,88.6,50.7,88.6,50.5,88.4z"/>
	<path class="st2" d="M53.4,85.5l-4.6-2.7c-0.2-0.1-0.2-0.3,0.1-0.5l2.6-1.5c0.2-0.1,0.6-0.2,0.8,0l4.6,2.7c0.2,0.1,0.2,0.3-0.1,0.5
		l-2.6,1.5C54,85.6,53.6,85.7,53.4,85.5z"/>
	<path class="st2" d="M62.8,95.6L60.2,94c-0.2-0.1-0.2-0.3,0.1-0.5l2.6-1.5c0.2-0.1,0.6-0.2,0.8,0l2.6,1.5c0.2,0.1,0.2,0.3-0.1,0.5
		l-2.6,1.5C63.4,95.7,63,95.7,62.8,95.6z"/>
	<path class="st2" d="M66.9,97.9l-2.6-1.5c-0.2-0.1-0.2-0.3,0.1-0.5l2.6-1.5c0.2-0.1,0.6-0.2,0.8,0l2.6,1.5c0.2,0.1,0.2,0.3-0.1,0.5
		l-2.6,1.5C67.5,98,67.1,98,66.9,97.9z"/>
	<path class="st2" d="M71,100.3l-2.6-1.5c-0.2-0.1-0.2-0.3,0.1-0.5l2.6-1.5c0.2-0.1,0.6-0.2,0.8,0l2.6,1.5c0.2,0.1,0.2,0.3-0.1,0.5
		l-2.6,1.5C71.6,100.4,71.2,100.4,71,100.3z"/>
	<path class="st2" d="M75.1,102.6l-2.6-1.5c-0.2-0.1-0.2-0.3,0.1-0.5l2.6-1.5c0.2-0.1,0.6-0.2,0.8,0l2.6,1.5
		c0.2,0.1,0.2,0.3-0.1,0.5l-2.6,1.5C75.6,102.7,75.3,102.8,75.1,102.6z"/>
	<path class="st2" d="M79.1,105l-2.6-1.5c-0.2-0.1-0.2-0.3,0.1-0.5l2.6-1.5c0.2-0.1,0.6-0.2,0.8,0l2.6,1.5c0.2,0.1,0.2,0.3-0.1,0.5
		l-2.6,1.5C79.7,105.1,79.3,105.1,79.1,105z"/>
	<path class="st2" d="M83.2,107.3l-2.6-1.5c-0.2-0.1-0.2-0.3,0.1-0.5l2.6-1.5c0.2-0.1,0.6-0.2,0.8,0l2.6,1.5
		c0.2,0.1,0.2,0.3-0.1,0.5l-2.6,1.5C83.8,107.4,83.4,107.5,83.2,107.3z"/>
	<path class="st2" d="M87.3,109.7l-2.6-1.5c-0.2-0.1-0.2-0.3,0.1-0.5l2.6-1.5c0.2-0.1,0.6-0.2,0.8,0l2.6,1.5
		c0.2,0.1,0.2,0.3-0.1,0.5l-2.6,1.5C87.9,109.8,87.5,109.8,87.3,109.7z"/>
	<path class="st2" d="M91.3,112l-2.6-1.5c-0.2-0.1-0.2-0.3,0.1-0.5l2.6-1.5c0.2-0.1,0.6-0.2,0.8,0l2.6,1.5c0.2,0.1,0.2,0.3-0.1,0.5
		l-2.6,1.5C91.9,112.1,91.6,112.2,91.3,112z"/>
	<path class="st2" d="M95.4,114.4l-2.6-1.5c-0.2-0.1-0.2-0.3,0.1-0.5l2.6-1.5c0.2-0.1,0.6-0.2,0.8,0l2.6,1.5
		c0.2,0.1,0.2,0.3-0.1,0.5l-2.6,1.5C96,114.5,95.6,114.5,95.4,114.4z"/>
	<path class="st2" d="M102.7,118.6l-5.8-3.3c-0.2-0.1-0.2-0.3,0.1-0.5l2.6-1.5c0.2-0.1,0.6-0.2,0.8,0l5.8,3.3
		c0.2,0.1,0.2,0.3-0.1,0.5l-2.6,1.5C103.2,118.7,102.9,118.7,102.7,118.6z"/>
	<path class="st2" d="M110.6,114l-4.9-2.8c-0.2-0.1-0.2-0.3,0.1-0.5l2.6-1.5c0.2-0.1,0.6-0.2,0.8,0l4.9,2.8c0.2,0.1,0.2,0.3-0.1,0.5
		l-2.6,1.5C111.2,114.1,110.8,114.1,110.6,114z"/>
	<path class="st2" d="M70,95.1l-2.6-1.5c-0.2-0.1-0.2-0.3,0.1-0.5l2.6-1.5c0.2-0.1,0.6-0.2,0.8,0l2.6,1.5c0.2,0.1,0.2,0.3-0.1,0.5
		l-2.6,1.5C70.5,95.2,70.2,95.2,70,95.1z"/>
	<path class="st2" d="M65.8,92.7l-2.6-1.5c-0.2-0.1-0.2-0.3,0.1-0.5l2.6-1.5c0.2-0.1,0.6-0.2,0.8,0l2.6,1.5c0.2,0.1,0.2,0.3-0.1,0.5
		l-2.6,1.5C66.4,92.8,66,92.8,65.8,92.7z"/>
	<path class="st2" d="M61.6,90.3L59,88.8c-0.2-0.1-0.2-0.3,0.1-0.5l2.6-1.5c0.2-0.1,0.6-0.2,0.8,0l2.6,1.5c0.2,0.1,0.2,0.3-0.1,0.5
		l-2.6,1.5C62.2,90.4,61.8,90.4,61.6,90.3z"/>
	<path class="st2" d="M57.4,87.9l-2.6-1.5c-0.2-0.1-0.2-0.3,0.1-0.5l2.6-1.5c0.2-0.1,0.6-0.2,0.8,0l2.6,1.5c0.2,0.1,0.2,0.3-0.1,0.5
		l-2.6,1.5C58,88,57.7,88,57.4,87.9z"/>
	<path class="st2" d="M74,97.5l-2.6-1.5c-0.2-0.1-0.2-0.3,0.1-0.5l2.6-1.5c0.2-0.1,0.6-0.2,0.8,0l2.6,1.5c0.2,0.1,0.2,0.3-0.1,0.5
		l-2.6,1.5C74.6,97.6,74.3,97.6,74,97.5z"/>
	<path class="st2" d="M78.1,99.8l-2.6-1.5c-0.2-0.1-0.2-0.3,0.1-0.5l2.6-1.5c0.2-0.1,0.6-0.2,0.8,0l2.6,1.5c0.2,0.1,0.2,0.3-0.1,0.5
		l-2.6,1.5C78.7,99.9,78.3,99.9,78.1,99.8z"/>
	<path class="st2" d="M82.2,102.2l-2.6-1.5c-0.2-0.1-0.2-0.3,0.1-0.5l2.6-1.5c0.2-0.1,0.6-0.2,0.8,0l2.6,1.5
		c0.2,0.1,0.2,0.3-0.1,0.5l-2.6,1.5C82.8,102.3,82.4,102.3,82.2,102.2z"/>
	<path class="st2" d="M86.3,104.5l-2.6-1.5c-0.2-0.1-0.2-0.3,0.1-0.5l2.6-1.5c0.2-0.1,0.6-0.2,0.8,0l2.6,1.5
		c0.2,0.1,0.2,0.3-0.1,0.5l-2.6,1.5C86.8,104.6,86.5,104.6,86.3,104.5z"/>
	<path class="st2" d="M90.3,106.9l-2.6-1.5c-0.2-0.1-0.2-0.3,0.1-0.5l2.6-1.5c0.2-0.1,0.6-0.2,0.8,0l2.6,1.5
		c0.2,0.1,0.2,0.3-0.1,0.5l-2.6,1.5C90.9,107,90.5,107,90.3,106.9z"/>
	<path class="st2" d="M94.4,109.2l-2.6-1.5c-0.2-0.1-0.2-0.3,0.1-0.5l2.6-1.5c0.2-0.1,0.6-0.2,0.8,0l2.6,1.5
		c0.2,0.1,0.2,0.3-0.1,0.5l-2.6,1.5C95,109.3,94.6,109.3,94.4,109.2z"/>
	<path class="st2" d="M98.5,111.6l-2.6-1.5c-0.2-0.1-0.2-0.3,0.1-0.5l2.6-1.5c0.2-0.1,0.6-0.2,0.8,0l2.6,1.5
		c0.2,0.1,0.2,0.3-0.1,0.5l-2.6,1.5C99.1,111.7,98.7,111.7,98.5,111.6z"/>
	<path class="st2" d="M102.6,113.9l-2.6-1.5c-0.2-0.1-0.2-0.3,0.1-0.5l2.6-1.5c0.2-0.1,0.6-0.2,0.8,0l2.6,1.5
		c0.2,0.1,0.2,0.3-0.1,0.5l-2.6,1.5C103.1,114,102.8,114.1,102.6,113.9z"/>
	<path class="st2" d="M106.6,116.3l-2.6-1.5c-0.2-0.1-0.2-0.3,0.1-0.5l2.6-1.5c0.2-0.1,0.6-0.2,0.8,0l2.6,1.5
		c0.2,0.1,0.2,0.3-0.1,0.5l-2.6,1.5C107.2,116.4,106.8,116.4,106.6,116.3z"/>
	<path class="st2" d="M67.8,89.3l-2.6-1.5c-0.2-0.1-0.2-0.3,0.1-0.5l2.6-1.5c0.2-0.1,0.6-0.2,0.8,0l2.6,1.5c0.2,0.1,0.2,0.3-0.1,0.5
		l-2.6,1.5C68.4,89.4,68,89.4,67.8,89.3z"/>
	<path class="st2" d="M63.8,87l-2.6-1.5c-0.2-0.1-0.2-0.3,0.1-0.5l2.6-1.5c0.2-0.1,0.6-0.2,0.8,0l2.6,1.5c0.2,0.1,0.2,0.3-0.1,0.5
		l-2.6,1.5C64.3,87.1,64,87.1,63.8,87z"/>
	<path class="st2" d="M59.7,84.6l-2.6-1.5c-0.2-0.1-0.2-0.3,0.1-0.5l2.6-1.5c0.2-0.1,0.6-0.2,0.8,0l2.6,1.5c0.2,0.1,0.2,0.3-0.1,0.5
		l-2.6,1.5C60.3,84.7,59.9,84.7,59.7,84.6z"/>
	<path class="st2" d="M55.7,82.3L53,80.8c-0.2-0.1-0.2-0.3,0.1-0.5l2.6-1.5c0.2-0.1,0.6-0.2,0.8,0l2.6,1.5c0.2,0.1,0.2,0.3-0.1,0.5
		l-2.6,1.5C56.2,82.4,55.9,82.4,55.7,82.3z"/>
	<path class="st2" d="M59.8,79.9l-2.6-1.5C57,78.2,57,78,57.3,77.9l0.9-0.5c0.2-0.1,0.6-0.2,0.8,0l2.6,1.5c0.2,0.1,0.2,0.3-0.1,0.5
		l-0.9,0.5C60.4,80,60,80,59.8,79.9z"/>
	<path class="st2" d="M65.1,82.9l-2.6-1.5c-0.2-0.1-0.2-0.3,0.1-0.5l0.9-0.5c0.2-0.1,0.6-0.2,0.8,0l2.6,1.5c0.2,0.1,0.2,0.3-0.1,0.5
		l-0.9,0.5C65.7,83,65.3,83,65.1,82.9z"/>
	<path class="st2" d="M69.2,85.3l-2.6-1.5c-0.2-0.1-0.2-0.3,0.1-0.5l0.9-0.5c0.2-0.1,0.6-0.2,0.8,0l2.6,1.5c0.2,0.1,0.2,0.3-0.1,0.5
		L70,85.2C69.7,85.4,69.4,85.4,69.2,85.3z"/>
	<path class="st2" d="M73.2,87.6l-2.6-1.5c-0.2-0.1-0.2-0.3,0.1-0.5l0.9-0.5c0.2-0.1,0.6-0.2,0.8,0l2.6,1.5c0.2,0.1,0.2,0.3-0.1,0.5
		L74,87.5C73.8,87.7,73.4,87.7,73.2,87.6z"/>
	<path class="st2" d="M77.2,89.9l-2.6-1.5c-0.2-0.1-0.2-0.3,0.1-0.5l0.9-0.5c0.2-0.1,0.6-0.2,0.8,0l2.6,1.5c0.2,0.1,0.2,0.3-0.1,0.5
		l-0.9,0.5C77.8,90,77.4,90,77.2,89.9z"/>
	<path class="st2" d="M99.8,102.9l-2.6-1.5c-0.2-0.1-0.2-0.3,0.1-0.5l0.9-0.5c0.2-0.1,0.6-0.2,0.8,0l2.6,1.5
		c0.2,0.1,0.2,0.3-0.1,0.5l-0.9,0.5C100.3,103,100,103,99.8,102.9z"/>
	<path class="st2" d="M103.8,105.3l-2.6-1.5c-0.2-0.1-0.2-0.3,0.1-0.5l0.9-0.5c0.2-0.1,0.6-0.2,0.8,0l2.6,1.5
		c0.2,0.1,0.2,0.3-0.1,0.5l-0.9,0.5C104.4,105.4,104,105.4,103.8,105.3z"/>
	<path class="st2" d="M107.8,107.6l-2.6-1.5c-0.2-0.1-0.2-0.3,0.1-0.5l0.9-0.5c0.2-0.1,0.6-0.2,0.8,0l2.6,1.5
		c0.2,0.1,0.2,0.3-0.1,0.5l-0.9,0.5C108.4,107.7,108,107.7,107.8,107.6z"/>
	<path class="st2" d="M111.9,109.9l-2.6-1.5c-0.2-0.1-0.2-0.3,0.1-0.5l0.9-0.5c0.2-0.1,0.6-0.2,0.8,0l2.6,1.5
		c0.2,0.1,0.2,0.3-0.1,0.5l-0.9,0.5C112.5,110,112.1,110,111.9,109.9z"/>
	<path class="st2" d="M71.9,91.6l-2.6-1.5c-0.2-0.1-0.2-0.3,0.1-0.5l2.6-1.5c0.2-0.1,0.6-0.2,0.8,0l2.6,1.5c0.2,0.1,0.2,0.3-0.1,0.5
		l-2.6,1.5C72.5,91.8,72.1,91.8,71.9,91.6z"/>
	<path class="st2" d="M76,94l-2.6-1.5c-0.2-0.1-0.2-0.3,0.1-0.5l2.6-1.5c0.2-0.1,0.6-0.2,0.8,0l2.6,1.5c0.2,0.1,0.2,0.3-0.1,0.5
		L76.8,94C76.5,94.1,76.2,94.1,76,94z"/>
	<path class="st2" d="M80,96.4l-2.6-1.5c-0.2-0.1-0.2-0.3,0.1-0.5l2.6-1.5c0.2-0.1,0.6-0.2,0.8,0l2.6,1.5c0.2,0.1,0.2,0.3-0.1,0.5
		l-2.6,1.5C80.6,96.5,80.3,96.5,80,96.4z"/>
	<path class="st2" d="M84.1,98.7l-2.6-1.5c-0.2-0.1-0.2-0.3,0.1-0.5l2.6-1.5c0.2-0.1,0.6-0.2,0.8,0l2.6,1.5c0.2,0.1,0.2,0.3-0.1,0.5
		l-2.6,1.5C84.7,98.8,84.3,98.8,84.1,98.7z"/>
	<path class="st2" d="M88.2,101.1l-2.6-1.5c-0.2-0.1-0.2-0.3,0.1-0.5l2.6-1.5c0.2-0.1,0.6-0.2,0.8,0l2.6,1.5
		c0.2,0.1,0.2,0.3-0.1,0.5L89,101C88.8,101.2,88.4,101.2,88.2,101.1z"/>
	<path class="st2" d="M92.3,103.4l-2.6-1.5c-0.2-0.1-0.2-0.3,0.1-0.5l2.6-1.5c0.2-0.1,0.6-0.2,0.8,0l2.6,1.5
		c0.2,0.1,0.2,0.3-0.1,0.5l-2.6,1.5C92.8,103.5,92.5,103.5,92.3,103.4z"/>
	<path class="st2" d="M96.3,105.8l-2.6-1.5c-0.2-0.1-0.2-0.3,0.1-0.5l2.6-1.5c0.2-0.1,0.6-0.2,0.8,0l2.6,1.5
		c0.2,0.1,0.2,0.3-0.1,0.5l-2.6,1.5C96.9,105.9,96.5,105.9,96.3,105.8z"/>
	<path class="st2" d="M100.4,108.1l-2.6-1.5c-0.2-0.1-0.2-0.3,0.1-0.5l2.6-1.5c0.2-0.1,0.6-0.2,0.8,0l2.6,1.5
		c0.2,0.1,0.2,0.3-0.1,0.5l-2.6,1.5C101,108.2,100.6,108.2,100.4,108.1z"/>
	<path class="st2" d="M104.5,110.5l-2.6-1.5c-0.2-0.1-0.2-0.3,0.1-0.5l2.6-1.5c0.2-0.1,0.6-0.2,0.8,0l2.6,1.5
		c0.2,0.1,0.2,0.3-0.1,0.5l-2.6,1.5C105.1,110.6,104.7,110.6,104.5,110.5z"/>
	<path class="st2" d="M48.6,91.9l-7.8-4.5c-0.2-0.1-0.2-0.3,0.1-0.5l2.6-1.5c0.2-0.1,0.6-0.2,0.8,0l7.8,4.5c0.2,0.1,0.2,0.3-0.1,0.5
		l-2.6,1.5C49.2,92,48.8,92.1,48.6,91.9z"/>
	<path class="st2" d="M98.7,120.8l-7.8-4.5c-0.2-0.1-0.2-0.3,0.1-0.5l2.6-1.5c0.2-0.1,0.6-0.2,0.8,0l7.8,4.5
		c0.2,0.1,0.2,0.3-0.1,0.5l-2.6,1.5C99.2,120.9,98.9,121,98.7,120.8z"/>
	<path class="st2" d="M82.4,116.6l-2.6-1.5c-0.2-0.1-0.2-0.3,0.1-0.5l3.1-1.8c0.2-0.1,0.6-0.2,0.8,0l2.6,1.5
		c0.2,0.1,0.2,0.3-0.1,0.5l-3.1,1.8C82.9,116.7,82.6,116.7,82.4,116.6z"/>
	<path class="st2" d="M52.8,99.5l-4.2-2.4c-0.2-0.1-0.2-0.3,0.1-0.5l3.1-1.8c0.2-0.1,0.6-0.2,0.8,0l4.2,2.4c0.2,0.1,0.2,0.3-0.1,0.5
		l-3.1,1.8C53.4,99.6,53,99.7,52.8,99.5z"/>
	<path class="st2" d="M78.4,114.4l-4.2-2.4c-0.2-0.1-0.2-0.3,0.1-0.5l3.1-1.8c0.2-0.1,0.6-0.2,0.8,0l4.2,2.4
		c0.2,0.1,0.2,0.3-0.1,0.5l-3.1,1.8C79,114.5,78.6,114.5,78.4,114.4z"/>
	<path class="st2" d="M58.7,102.9l-4.2-2.4c-0.2-0.1-0.2-0.3,0.1-0.5l3.1-1.8c0.2-0.1,0.6-0.2,0.8,0l4.2,2.4
		c0.2,0.1,0.2,0.3-0.1,0.5l-3.1,1.8C59.2,103,58.9,103.1,58.7,102.9z"/>
	<path class="st2" d="M58.5,98.2l18.3,10.6c0.2,0.1,0.2,0.3,0,0.5l-3.2,1.8c-0.2,0.1-0.6,0.1-0.8,0l-18.3-10.6L58.5,98.2z"/>
	<path class="st2" d="M93.7,120.9l2.9,1.7c0.2,0.1,0.2,0.3,0,0.4l-1.3,0.7c-0.2,0.1-0.5,0.1-0.7,0l-2.9-1.7c-0.2-0.1-0.2-0.3,0-0.4
		l1.3-0.7C93.3,120.8,93.6,120.8,93.7,120.9z"/>
	<path class="st2" d="M89.6,118.5l2.9,1.7c0.2,0.1,0.2,0.3,0,0.4l-1.3,0.7c-0.2,0.1-0.5,0.1-0.7,0l-2.9-1.7c-0.2-0.1-0.2-0.3,0-0.4
		l1.3-0.7C89.2,118.4,89.5,118.4,89.6,118.5z"/>
	<path class="st2" d="M85.6,116.2l2.9,1.7c0.2,0.1,0.2,0.3,0,0.4l-1.3,0.7c-0.2,0.1-0.5,0.1-0.7,0l-2.9-1.7c-0.2-0.1-0.2-0.3,0-0.4
		l1.3-0.7C85.1,116.1,85.4,116.1,85.6,116.2z"/>
	<path class="st2" d="M91.9,117.2l2.9,1.7c0.2,0.1,0.2,0.3,0,0.4l-1.3,0.7c-0.2,0.1-0.5,0.1-0.7,0l-2.9-1.7c-0.2-0.1-0.2-0.3,0-0.4
		l1.3-0.7C91.4,117.1,91.7,117.1,91.9,117.2z"/>
	<path class="st13" d="M133.4,53.8c-0.2,0-0.4-0.1-0.6-0.2c-0.6-0.4-1-1.2-0.9-1.8c0.1-0.3,0.3-0.5,0.5-0.7c0.3-0.1,0.6-0.1,1,0.1
		c0.6,0.4,1,1.2,0.9,1.8c-0.1,0.3-0.3,0.5-0.5,0.7C133.7,53.8,133.6,53.8,133.4,53.8z M132.9,51.4c-0.1,0-0.2,0-0.3,0.1
		c-0.2,0.1-0.3,0.2-0.4,0.5c-0.1,0.5,0.2,1.2,0.7,1.5c0.3,0.1,0.5,0.2,0.7,0.1c0.2-0.1,0.3-0.2,0.4-0.5c0.1-0.5-0.2-1.2-0.7-1.5
		C133.2,51.4,133,51.4,132.9,51.4z"/>
	<path class="st13" d="M136.8,55.8c-0.2,0-0.4-0.1-0.6-0.2c-0.6-0.4-1-1.2-0.9-1.8c0.1-0.3,0.3-0.5,0.5-0.7c0.3-0.1,0.6-0.1,1,0.1
		c0.6,0.4,1,1.2,0.9,1.8c-0.1,0.3-0.3,0.5-0.5,0.7C137.1,55.7,136.9,55.8,136.8,55.8z M136.2,53.3c-0.1,0-0.2,0-0.3,0.1
		c-0.2,0.1-0.3,0.2-0.4,0.5c-0.1,0.5,0.2,1.2,0.7,1.5c0.3,0.1,0.5,0.2,0.7,0.1c0.2-0.1,0.3-0.2,0.4-0.5c0.1-0.5-0.2-1.2-0.7-1.5
		C136.5,53.4,136.4,53.3,136.2,53.3z"/>
	<path class="st13" d="M140.9,57c-0.1,0.6-0.7,0.8-1.3,0.5s-0.9-1.1-0.8-1.7c0.1-0.6,0.7-0.8,1.3-0.5C140.7,55.6,141,56.4,140.9,57z
		"/>
	<polygon class="st13" points="76.5,19.9 74.7,18.9 74.8,18 76.6,19.1 	"/>
	<polygon class="st13" points="79.1,21.4 77.3,20.4 77.5,19.5 79.3,20.6 	"/>
	<polygon class="st13" points="73.9,18.4 70,16.1 70.1,15.3 74.1,17.6 	"/>
	<polygon class="st13" points="74.4,34.1 71.4,32.3 71.5,31.6 74.5,33.4 	"/>
	<polygon class="st13" points="77,35.6 75.5,34.7 75.6,34 77.1,34.9 	"/>
	<polygon class="st13" points="75,36.2 73.7,35.5 73.9,34.8 75.1,35.5 	"/>
	<polygon class="st13" points="77.2,37.5 75.7,36.6 75.8,35.9 77.3,36.8 	"/>
	<polygon class="st13" points="79.4,40.5 73.5,37.1 73.6,36.4 79.5,39.8 	"/>
	<polygon class="st13" points="74.3,54.2 68.4,50.7 68.5,50 74.4,53.5 	"/>
	<polygon class="st13" points="76.5,55.5 75,54.6 75.1,53.9 76.6,54.8 	"/>
	<polygon class="st13" points="74.5,39.5 73.2,38.7 73.3,38 74.6,38.8 	"/>
	<polygon class="st13" points="76.6,40.7 75.1,39.8 75.2,39.1 76.7,40 	"/>
	<polygon class="st13" points="76.2,42.2 72.9,40.4 73,39.7 76.3,41.5 	"/>
	<polygon class="st13" points="78.3,43.5 76.8,42.6 77,41.9 78.5,42.8 	"/>
	<polygon class="st13" points="80.5,44.8 79,43.9 79.1,43.2 80.7,44.1 	"/>
	<polygon class="st13" points="84.1,46.8 81.2,45.1 81.3,44.5 84.2,46.1 	"/>
	<polygon class="st13" points="81.8,49.1 80.3,48.2 80.4,47.5 81.9,48.4 	"/>
	<polygon class="st13" points="85.3,51.1 82.5,49.5 82.6,48.8 85.5,50.4 	"/>
	<polygon class="st13" points="73.9,44.5 72.4,43.6 72.5,42.9 74,43.8 	"/>
	<polygon class="st13" points="76.1,45.7 74.6,44.9 74.7,44.2 76.2,45.1 	"/>
	<polygon class="st13" points="79.6,47.8 76.8,46.1 76.9,45.4 79.7,47.1 	"/>
	<polygon class="st13" points="84.2,48.7 82.7,47.8 82.8,47.1 84.3,48 	"/>
	<polygon class="st13" points="86.4,49.9 84.9,49.1 85,48.4 86.5,49.2 	"/>
	<polygon class="st13" points="89.9,52 87.1,50.3 87.2,49.6 90,51.3 	"/>
	<polygon class="st13" points="78.9,56.8 77.4,56 77.5,55.3 79,56.1 	"/>
	<polygon class="st13" points="82.4,58.9 79.6,57.2 79.7,56.5 82.5,58.2 	"/>
	<polygon class="st13" points="73.3,47.7 71.8,46.9 72,46.2 73.5,47.1 	"/>
	<polygon class="st13" points="76.9,49.8 74,48.1 74.1,47.4 77,49.1 	"/>
	<polygon class="st13" points="80.5,59.6 79,58.7 79.1,58 80.6,58.9 	"/>
	<polygon class="st13" points="84,61.6 81.2,60 81.3,59.3 84.2,60.9 	"/>
	<polygon class="st13" points="83.9,43.1 82.4,42.2 82.5,41.5 84,42.4 	"/>
	<polygon class="st13" points="81.6,41.8 80.1,40.9 80.2,40.2 81.7,41.1 	"/>
	<polygon class="st13" points="87.4,45.1 84.6,43.5 84.7,42.8 87.5,44.4 	"/>
	<polygon class="st13" points="74,42.8 72.7,42 72.8,41.3 74.1,42.1 	"/>
	<polygon class="st13" points="78,45.1 74.7,43.2 74.9,42.5 78.1,44.4 	"/>
	<polygon class="st13" points="82.1,47.4 78.8,45.5 78.9,44.8 82.2,46.7 	"/>
	<polygon class="st13" points="89.5,46.3 88.1,45.6 88.3,44.9 89.6,45.7 	"/>
	<polygon class="st13" points="93.5,48.7 90.2,46.8 90.3,46.1 93.6,48 	"/>
	<polygon class="st13" points="97.5,51 94.2,49.1 94.4,48.4 97.7,50.3 	"/>
	<polygon class="st13" points="83.4,44.7 77.5,41.3 77.6,40.6 83.5,44 	"/>
	<polygon class="st13" points="87.9,47.3 86.4,46.4 86.5,45.7 88,46.6 	"/>
	<polygon class="st13" points="85.6,46 84.1,45.1 84.3,44.4 85.8,45.3 	"/>
	<polygon class="st13" points="91.4,49.3 88.6,47.7 88.7,47 91.6,48.6 	"/>
	<polygon class="st13" points="93.5,50.5 92.2,49.7 92.3,49 93.7,49.8 	"/>
	<polygon class="st13" points="97.6,52.8 94.3,50.9 94.4,50.2 97.7,52.2 	"/>
	<polygon class="st13" points="101.6,55.2 98.3,53.3 98.4,52.6 101.7,54.5 	"/>
	<polygon class="st13" points="104.2,54.7 98.3,51.3 98.4,50.6 104.3,54 	"/>
	<polygon class="st13" points="108.7,57.3 107.2,56.5 107.3,55.8 108.8,56.6 	"/>
	<polygon class="st13" points="106.4,56 104.9,55.2 105,54.5 106.5,55.3 	"/>
	<polygon class="st13" points="112.2,59.4 109.4,57.7 109.5,57 112.3,58.7 	"/>
	<polygon class="st13" points="114.3,60.6 112.9,59.8 113.1,59.1 114.4,59.9 	"/>
	<polygon class="st13" points="118.3,62.9 115,61 115.1,60.3 118.4,62.2 	"/>
	<polygon class="st13" points="122.3,65.2 119,63.3 119.2,62.6 122.5,64.5 	"/>
	<polygon class="st13" points="88.8,55 82.9,51.6 83,50.9 88.9,54.3 	"/>
	<polygon class="st13" points="93.3,57.6 91.7,56.7 91.9,56 93.4,56.9 	"/>
	<polygon class="st13" points="91,56.3 89.5,55.4 89.6,54.7 91.1,55.6 	"/>
	<polygon class="st13" points="96.8,59.6 93.9,58 94.1,57.3 96.9,58.9 	"/>
	<polygon class="st13" points="98.9,60.8 97.5,60.1 97.6,59.4 99,60.1 	"/>
	<polygon class="st13" points="102.9,63.2 99.6,61.3 99.7,60.6 103,62.5 	"/>
	<polygon class="st13" points="106.9,65.5 103.6,63.6 103.7,62.9 107,64.8 	"/>
	<polygon class="st13" points="90.3,65.2 84.4,61.8 84.5,61.1 90.4,64.5 	"/>
	<polygon class="st13" points="94.8,67.8 93.3,66.9 93.4,66.2 94.9,67.1 	"/>
	<polygon class="st13" points="92.5,66.5 91,65.6 91.1,64.9 92.6,65.8 	"/>
	<polygon class="st13" points="98.3,69.8 95.5,68.2 95.6,67.5 98.4,69.1 	"/>
	<polygon class="st13" points="100.4,71 99,70.2 99.2,69.5 100.5,70.3 	"/>
	<polygon class="st13" points="104.4,73.3 101.1,71.4 101.2,70.7 104.5,72.6 	"/>
	<polygon class="st13" points="108.4,75.7 105.1,73.8 105.3,73.1 108.6,75 	"/>
	<polygon class="st13" points="89.3,70 83.4,66.6 83.5,65.9 89.4,69.3 	"/>
	<polygon class="st13" points="93.8,72.6 92.3,71.7 92.4,71 93.9,71.9 	"/>
	<polygon class="st13" points="91.5,71.3 90,70.4 90.1,69.7 91.6,70.6 	"/>
	<polygon class="st13" points="97.3,74.6 94.5,73 94.6,72.3 97.4,73.9 	"/>
	<polygon class="st13" points="99.4,75.8 98,75 98.2,74.4 99.5,75.1 	"/>
	<polygon class="st13" points="103.4,78.2 100.1,76.3 100.2,75.6 103.5,77.5 	"/>
	<polygon class="st13" points="107.4,80.5 104.1,78.6 104.3,77.9 107.6,79.8 	"/>
	<polygon class="st13" points="75.4,47.2 72.1,45.3 72.3,44.6 75.5,46.5 	"/>
	<polygon class="st13" points="77.2,48.2 76.2,47.6 76.3,46.9 77.3,47.5 	"/>
	<polygon class="st13" points="78.9,49.2 77.9,48.6 78,47.9 79,48.5 	"/>
	<polygon class="st13" points="82.1,51 79.6,49.6 79.8,48.9 82.2,50.3 	"/>
	<polygon class="st13" points="85.7,47.8 84.7,47.2 84.8,46.5 85.9,47.1 	"/>
	<polygon class="st13" points="89,49.6 86.5,48.2 86.6,47.5 89.1,48.9 	"/>
	<polygon class="st13" points="89.6,50 87.1,48.6 87.3,47.9 89.8,49.3 	"/>
	<polygon class="st13" points="76.4,59 73.1,57.1 73.2,56.4 76.5,58.3 	"/>
	<polygon class="st13" points="78.6,60.2 77,59.3 77.2,58.6 78.7,59.5 	"/>
	<polygon class="st13" points="80.7,61.5 79.2,60.6 79.4,59.9 80.9,60.8 	"/>
	<polygon class="st13" points="84.3,63.5 81.4,61.9 81.5,61.2 84.4,62.8 	"/>
	<polygon class="st13" points="86.5,64.8 85,63.9 85.1,63.2 86.6,64.1 	"/>
	<polygon class="st13" points="90,66.8 87.2,65.2 87.3,64.5 90.2,66.1 	"/>
	<polygon class="st13" points="79.2,64.2 77.7,63.3 77.8,62.6 79.3,63.5 	"/>
	<polygon class="st13" points="82.8,66.2 79.9,64.6 80,63.9 82.9,65.5 	"/>
	<polygon class="st13" points="71.4,59.6 69.9,58.8 70,58.1 71.5,58.9 	"/>
	<polygon class="st13" points="73.6,60.9 72.1,60 72.2,59.3 73.7,60.2 	"/>
	<polygon class="st13" points="77.1,62.9 74.2,61.3 74.4,60.6 77.2,62.2 	"/>
	<polygon class="st13" points="74.2,59.5 72.9,58.7 73,58 74.3,58.8 	"/>
	<polygon class="st13" points="78.2,61.8 74.9,59.9 75.1,59.2 78.4,61.1 	"/>
	<polygon class="st13" points="82.3,64.1 79,62.2 79.1,61.5 82.4,63.4 	"/>
	<polygon class="st13" points="70.3,60.8 67,58.9 67.1,58.2 70.4,60.1 	"/>
	<polygon class="st13" points="72,61.8 71,61.2 71.1,60.5 72.1,61.1 	"/>
	<polygon class="st13" points="73.7,62.8 72.7,62.2 72.8,61.5 73.9,62.1 	"/>
	<polygon class="st13" points="77,64.7 74.5,63.2 74.6,62.5 77.1,64 	"/>
	<polygon class="st13" points="77.6,65 75.2,63.6 75.3,62.9 77.8,64.3 	"/>
	<polygon class="st13" points="71.8,54.5 70.7,53.9 70.9,53.2 71.9,53.8 	"/>
	<polygon class="st13" points="75,56.4 72.5,54.9 72.6,54.2 75.1,55.7 	"/>
	<polygon class="st13" points="78.3,58.3 75.8,56.8 75.9,56.1 78.4,57.6 	"/>
	<polygon class="st13" points="90.9,69.1 89.4,68.3 89.6,67.6 91.1,68.5 	"/>
	<polygon class="st13" points="94.5,71.2 91.6,69.5 91.7,68.8 94.6,70.5 	"/>
	<polygon class="st13" points="85.4,65.9 82.9,64.5 83,63.8 85.5,65.2 	"/>
	<polygon class="st13" points="88.7,67.8 86.2,66.4 86.3,65.7 88.8,67.1 	"/>
	<polygon class="st13" points="70,47.6 69,47 69.1,46.3 70.1,46.9 	"/>
	<polygon class="st13" points="73.2,49.5 70.7,48 70.8,47.3 73.3,48.8 	"/>
	<polygon class="st13" points="76.5,51.4 74,49.9 74.1,49.2 76.6,50.7 	"/>
	<path class="st13" d="M112.9,47c-0.3,0-0.6-0.1-0.9-0.3l-15.7-9.1c-1-0.6-1.5-1.9-1.2-3c0.2-0.6,0.5-1,1-1.2c0.5-0.2,1-0.1,1.4,0.1
		l15.7,9.1c1,0.6,1.5,1.9,1.2,3c-0.2,0.6-0.5,1-1,1.2C113.2,47,113.1,47,112.9,47z M96.5,33.7c-0.2,0-0.3,0-0.5,0.1
		c-0.4,0.2-0.7,0.5-0.8,1c-0.3,1,0.2,2.2,1.1,2.7l15.7,9.1c0.4,0.2,0.8,0.3,1.2,0.1c0.4-0.2,0.7-0.5,0.8-1c0.3-1-0.2-2.2-1.1-2.7
		l-15.7-9.1C97,33.8,96.8,33.7,96.5,33.7z"/>
</g>
</svg>
